<svg width="121" height="40" viewBox="0 0 121 40" fill="none" xmlns="http://www.w3.org/2000/svg"><g clip-path="url(#clip0_1_51)"><mask id="a" style="mask-type:luminance" maskUnits="userSpaceOnUse" x="0" y="0" width="121" height="40"><path d="M120.14.055H.47v39.89h119.67V.055z" fill="#fff"/></mask><g mask="url(#a)"><path d="M8.19 39.945h-.914c-.61 0-1.32-.104-1.93-.209-.61-.104-1.118-.313-1.727-.522-.508-.313-1.016-.626-1.423-1.044-.406-.418-.812-.94-1.015-1.462-.305-.522-.407-1.149-.508-1.775C.57 34.306.47 33.68.47 32.949V7.887v-.94c0-.627.101-1.358.203-1.984a5.555 5.555 0 01.61-1.67c.304-.523.609-1.045 1.015-1.463.406-.418.914-.73 1.422-1.044C4.228.473 4.838.368 5.447.264c.61-.105 1.22-.21 1.93-.21H113.634c.609 0 1.219.105 1.93.21.609.104 1.117.313 1.727.522 1.016.522 1.93 1.462 2.438 2.506.304.522.406 1.149.508 1.67.101.627.203 1.358.203 1.985V32.949c0 .626-.102 1.253-.203 1.984-.102.626-.305 1.148-.508 1.775-.305.522-.61 1.044-1.016 1.462-.406.418-.914.835-1.422 1.044-.508.313-1.118.522-1.727.522-.61.105-1.219.209-1.93.209H8.19z" fill="#000"/><path d="M25.263 20.3c0-1.696.9-3.292 2.4-4.19-.9-1.296-2.4-2.093-4-2.193-1.699-.2-3.299.997-4.198.997-.9 0-2.2-.997-3.6-.997-1.899.1-3.599 1.097-4.498 2.693-1.9 3.29-.5 8.277 1.4 10.97.9 1.296 1.999 2.792 3.399 2.792 1.4-.1 1.899-.898 3.599-.898 1.7 0 2.099.898 3.599.898s2.399-1.297 3.299-2.693c.7-.897 1.2-1.994 1.5-3.091-1.8-.599-2.9-2.394-2.9-4.289zM22.464 12.221c.8-.997 1.2-2.194 1.1-3.49-1.2.1-2.4.698-3.2 1.695-.8.898-1.2 2.095-1.1 3.39 1.3 0 2.4-.598 3.2-1.595zM42.759 27.08H38.06l-1.1 3.39h-2l4.5-12.365h2l4.498 12.366h-2l-1.2-3.39zm-4.2-1.496h3.8l-1.9-5.485h-.1l-1.8 5.485zM55.656 25.983c0 2.792-1.5 4.587-3.8 4.587-1.2.1-2.299-.598-2.799-1.595v4.487h-1.9V21.495h1.8v1.496c.6-.997 1.7-1.595 2.9-1.595 2.199-.1 3.799 1.795 3.799 4.587zm-2 0c0-1.795-.9-2.992-2.4-2.992-1.399 0-2.399 1.197-2.399 2.992s1 2.992 2.4 2.992c1.5 0 2.4-1.197 2.4-2.992zM65.553 25.983c0 2.792-1.5 4.587-3.799 4.587-1.2.1-2.3-.598-2.8-1.595v4.487h-1.899V21.495h1.8v1.496c.6-.997 1.7-1.595 2.9-1.595 2.298-.1 3.798 1.795 3.798 4.587zm-1.9 0c0-1.795-.9-2.992-2.399-2.992-1.4 0-2.4 1.197-2.4 2.992s1 2.992 2.4 2.992c1.5 0 2.4-1.197 2.4-2.992zM72.152 26.98c.1 1.197 1.3 1.995 2.999 1.995 1.6 0 2.7-.798 2.7-1.895 0-.997-.7-1.496-2.3-1.895l-1.6-.398c-2.3-.599-3.3-1.596-3.3-3.291 0-2.095 1.9-3.59 4.5-3.59s4.399 1.495 4.499 3.59h-1.9c-.1-1.197-1.1-1.995-2.6-1.995-1.499 0-2.499.798-2.499 1.895 0 .897.7 1.396 2.3 1.795l1.4.3c2.499.598 3.599 1.595 3.599 3.39 0 2.293-1.9 3.79-4.8 3.79-2.799 0-4.598-1.397-4.698-3.69h1.7zM83.749 19.301v2.095h1.7v1.495h-1.7v4.987c0 .798.3 1.097 1.1 1.097h.6v1.496c-.3.1-.7.1-1 .1-1.8 0-2.5-.699-2.5-2.394V22.99h-1.3v-1.496h1.3v-2.094h1.8v-.1zM86.548 25.983c0-2.792 1.7-4.587 4.299-4.587 2.6 0 4.299 1.795 4.299 4.587 0 2.892-1.7 4.588-4.3 4.588-2.698 0-4.298-1.796-4.298-4.588zm6.698 0c0-1.994-.9-3.091-2.4-3.091-1.499 0-2.398 1.097-2.398 3.091 0 1.995.9 3.092 2.399 3.092 1.5 0 2.4-1.197 2.4-3.092zM96.645 21.396h1.8v1.595c.2-.997 1.2-1.695 2.199-1.595.2 0 .4 0 .6.1v1.695c-.3-.1-.599-.1-.799-.1-1 0-1.9.798-1.9 1.795v5.684h-1.9v-9.174zM109.842 27.778c-.3 1.596-1.899 2.792-3.899 2.792-2.599 0-4.299-1.795-4.299-4.587s1.6-4.687 4.199-4.687c2.5 0 4.099 1.695 4.099 4.488v.598h-6.398v.1c-.1 1.296.8 2.393 2.099 2.593h.3c.9.1 1.8-.4 2.1-1.297h1.799zm-6.298-2.692h4.499c.1-1.197-.9-2.194-2.1-2.294h-.2c-1.2 0-2.199.997-2.199 2.293zM37.16 11.324h.8c.5.1 1-.3 1.1-.898v-.1c0-.598-.4-.897-1.1-.897-.6-.1-1.1.3-1.2.898h-.9c.1-.998.9-1.795 2-1.795h.1c1.2 0 2 .698 2 1.595 0 .698-.4 1.197-1.1 1.396v.1c.8 0 1.4.698 1.3 1.396-.1 1.097-1.1 1.895-2.2 1.795-1.1.1-2.1-.598-2.2-1.695v-.1h.9c.1.599.6.898 1.4.898.8 0 1.3-.4 1.3-.998s-.5-.997-1.3-.997h-.8v-.598h-.1zM41.26 13.418c0-.797.6-1.296 1.699-1.296l1.2-.1v-.399c0-.498-.3-.698-.9-.698-.5 0-.8.2-.9.499h-.9c.1-.798.8-1.297 1.8-1.297 1.1 0 1.8.599 1.8 1.496v3.092h-.9v-.598h-.1c-.3.498-.8.697-1.4.697-.7.1-1.4-.498-1.5-1.196.1-.1.1-.1.1-.2zm2.899-.398v-.4l-1.1.1c-.6 0-.9.3-.9.599 0 .399.4.598.8.598.6.2 1.2-.2 1.2-.897 0 .1 0 .1 0 0zM47.458 10.925v3.79h-.9v-4.488h3v.698h-2.1zM54.856 12.42c0 1.397-.7 2.295-1.9 2.295-.6 0-1.1-.3-1.4-.798h-.1v2.194h-.899v-5.984h.9v.698h.1c.3-.498.8-.797 1.4-.797 1.2.1 1.899.997 1.899 2.393zm-.9 0c0-.996-.5-1.495-1.2-1.495s-1.2.598-1.2 1.496c0 .897.5 1.496 1.2 1.496.8.1 1.2-.499 1.2-1.496zM56.056 16.31v-.798h.3c.4 0 .7-.2.8-.598l.1-.2-1.6-4.487h1l1.1 3.59h.1l1.099-3.59h.9l-1.7 4.687c-.4 1.097-.8 1.396-1.7 1.396h-.4zM60.554 13.418h.9c.1.4.5.599 1 .599.6 0 1-.3 1-.698 0-.4-.3-.599-1-.599h-.7v-.698h.7c.5 0 .8-.2.8-.598 0-.3-.3-.599-.8-.599s-.9.2-.9.599h-.9c.1-.798.9-1.396 1.8-1.297 1.1 0 1.7.499 1.7 1.197 0 .399-.3.798-.7.898v.1c.5.099.9.498.9.997 0 .897-.7 1.396-1.8 1.396-1.1.1-1.9-.4-2-1.297zM65.553 14.714v-4.487h.9v3.091l2.1-3.091h.9v4.487h-.9v-3.091h-.1l-2.1 3.091h-.8zM74.251 10.925h-1.4v3.79h-.9v-3.79h-1.399v-.698h3.7v.698zM79.05 13.518c-.2.797-1.1 1.396-2 1.296-1.1 0-2.1-.897-2.1-1.994v-.3c-.2-1.096.6-2.194 1.8-2.293h.3c1.3 0 2 .897 2 2.293v.3h-3.2c-.1.698.4 1.196 1.1 1.296h.1c.4.1.9-.2 1.1-.499l.9-.1zm-3.1-1.496h2.3c0-.598-.4-1.097-1-1.197h-.1c-.7.1-1.2.599-1.2 1.197zM82.849 10.227h2c.9 0 1.399.399 1.399 1.097 0 .498-.3.897-.8.997v.1c.5 0 1 .498 1 .997 0 .798-.6 1.296-1.6 1.296H82.75v-4.487h.1zm.9.698v1.097h.9c.5 0 .8-.2.8-.598 0-.4-.2-.599-.7-.599l-1 .1zm0 1.795v1.296h1.1c.5 0 .8-.2.8-.698 0-.498-.3-.698-.9-.698l-1 .1z" fill="#fff"/></g></g><defs><clipPath id="clip0_1_51"><path fill="#fff" d="M0 0h121v40H0z"/></clipPath></defs></svg>