<svg width="137" height="40" viewBox="0 0 137 40" fill="none" xmlns="http://www.w3.org/2000/svg"><g clip-path="url(#clip0_1_2)"><mask id="a" style="mask-type:luminance" maskUnits="userSpaceOnUse" x="0" y="0" width="137" height="40"><path d="M136.609.049H.469v39.903h136.14V.049z" fill="#fff"/></mask><g mask="url(#a)"><path d="M127.005.049H10.079c-.37 0-.735 0-1.103.002-.309.001-.615.007-.926.012C7.379.079 6.7.12 6.03.237a6.834 6.834 0 00-1.916.617 6.486 6.486 0 00-1.632 1.161 6.176 6.176 0 00-1.187 1.596 6.401 6.401 0 00-.63 1.875c-.122.652-.163 1.311-.18 1.971-.01.302-.011.605-.016.907v23.275c.005.306.006.602.015.908.018.66.06 1.32.18 1.971.119.66.317 1.278.63 1.876a6.125 6.125 0 001.188 1.59c.477.47 1.029.86 1.632 1.16a6.863 6.863 0 001.916.62c.67.118 1.349.157 2.02.175.311.007.617.01.926.01.368.003.733.003 1.103.003h116.926c.362 0 .73 0 1.092-.002.307 0 .622-.004.929-.011.675-.018 1.353-.057 2.016-.174a6.968 6.968 0 001.923-.621c.602-.3 1.154-.69 1.63-1.16a6.29 6.29 0 001.191-1.59 6.4 6.4 0 00.625-1.876c.123-.652.162-1.312.186-1.971.004-.306.004-.602.004-.908.008-.358.008-.713.008-1.077V9.439c0-.36 0-.718-.008-1.075 0-.302 0-.605-.004-.907-.024-.66-.063-1.32-.186-1.971a6.414 6.414 0 00-.625-1.875 6.343 6.343 0 00-1.191-1.596 6.487 6.487 0 00-1.63-1.16 6.939 6.939 0 00-1.923-.618c-.663-.117-1.341-.158-2.016-.174-.307-.005-.622-.01-.929-.012-.362-.002-.73-.002-1.092-.002z" fill="#000"/><path d="M8.98 39.09c-.306 0-.606-.004-.91-.01-.564-.016-1.233-.046-1.885-.16a6.023 6.023 0 01-1.67-.54 5.441 5.441 0 01-1.408-1.002c-.417-.4-.76-.86-1.028-1.375a5.542 5.542 0 01-.547-1.632c-.123-.662-.155-1.334-.168-1.846-.007-.208-.015-.9-.015-.9V8.366s.009-.682.015-.882c.013-.515.045-1.187.167-1.843a5.572 5.572 0 01.547-1.637 5.301 5.301 0 011.024-1.376A5.602 5.602 0 014.515 1.62a5.965 5.965 0 011.666-.536c.68-.119 1.367-.148 1.89-.161l.91-.012h119.111l.92.012c.517.013 1.205.042 1.874.16.607.104 1.156.28 1.684.54a5.567 5.567 0 012.434 2.383c.259.503.437 1.036.54 1.623.117.622.153 1.26.174 1.859.004.279.004.578.004.876.006.37.006.721.006 1.075v21.123c0 .358 0 .707-.006 1.06 0 .32 0 .613-.004.915-.021.58-.057 1.217-.173 1.825a5.573 5.573 0 01-.544 1.644 5.38 5.38 0 01-1.024 1.365 5.468 5.468 0 01-1.41 1.007 6.01 6.01 0 01-1.681.541c-.646.115-1.314.145-1.884.16-.296.008-.605.011-.905.011l-1.093.002L8.981 39.09z" fill="#000"/><path d="M46.831 25.45h3.527l-1.262-3.303c-.174-.456-.345-.96-.513-1.512-.153.488-.318.987-.497 1.496L46.83 25.45zm4.13 1.568h-4.724l-1.157 3.088h-2.077l4.627-11.532h1.963l4.732 11.532h-2.183l-1.181-3.088zM60.553 28.008c.41-.538.615-1.325.615-2.36 0-.96-.17-1.656-.51-2.088-.339-.433-.79-.649-1.355-.649-.392 0-.753.09-1.084.27-.33.18-.646.422-.945.725v4.6c.2.095.435.17.7.227.267.055.53.083.791.083.782 0 1.378-.27 1.788-.808zm-5.29-4.389c0-.637-.023-1.337-.066-2.1h1.89c.07.355.119.718.147 1.09.782-.833 1.677-1.25 2.688-1.25.586 0 1.13.145 1.629.434.5.289.903.745 1.21 1.369.306.623.46 1.415.46 2.375 0 1.003-.176 1.86-.526 2.57-.35.712-.84 1.25-1.47 1.616-.63.366-1.358.55-2.183.55a5.493 5.493 0 01-1.768-.295v3.55l-2.012.167V23.619zM69.8 28.008c.41-.538.614-1.325.614-2.36 0-.96-.17-1.656-.509-2.088-.34-.433-.791-.649-1.356-.649-.391 0-.752.09-1.084.27-.33.18-.646.422-.944.725v4.6c.2.095.434.17.7.227.266.055.53.083.79.083.783 0 1.378-.27 1.788-.808zm-5.291-4.389c0-.637-.022-1.337-.065-2.1h1.89c.07.355.118.718.146 1.09.782-.833 1.678-1.25 2.688-1.25.586 0 1.13.145 1.629.434.5.289.903.745 1.21 1.369.307.623.46 1.415.46 2.375 0 1.003-.175 1.86-.526 2.57-.35.712-.84 1.25-1.47 1.616-.63.366-1.357.55-2.183.55a5.493 5.493 0 01-1.767-.295v3.55l-2.012.167V23.619zM76.263 29.56a4.826 4.826 0 01-2.004-2.017c-.467-.876-.7-1.91-.7-3.104 0-1.295.268-2.395.806-3.3a5.14 5.14 0 012.196-2.036c.925-.454 1.963-.68 3.115-.68a8.39 8.39 0 011.943.218 8.55 8.55 0 011.723.6l-.513 1.513c-1.07-.499-2.092-.748-3.063-.748-.82 0-1.538.17-2.155.513-.616.342-1.095.845-1.438 1.508-.341.663-.513 1.464-.513 2.404 0 .822.132 1.552.395 2.188a3.25 3.25 0 001.246 1.512c.568.372 1.284.558 2.147.558.391 0 .782-.032 1.173-.096a6.217 6.217 0 001.1-.279v-2.331h-2.729v-1.528h4.684v4.854c-.674.308-1.381.544-2.122.709-.741.164-1.479.246-2.212.246-1.184 0-2.21-.235-3.079-.704zM89.72 28.513c.418-.196.76-.44 1.026-.732V26.19a13.294 13.294 0 00-1.344-.088c-.83 0-1.405.131-1.722.394-.318.263-.477.617-.477 1.062 0 .425.115.74.346.944.231.204.545.306.94.306.403 0 .813-.098 1.23-.295zm1.205 1.592a7.388 7.388 0 01-.138-1.138c-.31.361-.713.668-1.21.92-.496.251-1.057.377-1.682.377-.505 0-.965-.097-1.38-.29a2.286 2.286 0 01-.99-.876c-.245-.39-.367-.866-.367-1.428 0-.833.307-1.497.921-1.994.614-.496 1.637-.744 3.07-.744.539 0 1.07.037 1.597.112v-.168c0-.758-.165-1.293-.497-1.603-.33-.31-.806-.466-1.425-.466-.429 0-.888.061-1.377.184a7.357 7.357 0 00-1.287.437l-.317-1.433c.358-.159.83-.305 1.417-.437a8.416 8.416 0 011.857-.199c.76 0 1.407.113 1.939.338.532.226.947.613 1.246 1.162.299.549.448 1.288.448 2.216v3.415c0 .355.022.894.065 1.615h-1.89zM94.51 28.044V17.897l2.004-.16v9.957c0 .366.064.624.192.776.127.15.33.227.607.227.124 0 .301-.03.529-.088l.236 1.409c-.19.074-.422.134-.696.179a4.808 4.808 0 01-.778.067c-1.396 0-2.094-.74-2.094-2.22zM99.52 28.044V17.897l2.004-.16v9.957c0 .366.063.624.191.776.127.15.33.227.607.227.125 0 .302-.03.529-.088l.237 1.409c-.19.074-.423.134-.697.179a4.805 4.805 0 01-.778.067c-1.395 0-2.093-.74-2.093-2.22zM109.466 24.813c-.037-.684-.214-1.197-.529-1.54-.315-.342-.736-.513-1.263-.513-.51 0-.935.172-1.275.517-.339.345-.56.857-.664 1.536h3.731zm1.963 1.25h-5.751c.093 1.798.97 2.698 2.631 2.698.413 0 .835-.05 1.267-.147.432-.099.846-.23 1.243-.395l.439 1.346c-.983.466-2.088.7-3.315.7-.934 0-1.721-.172-2.363-.517a3.356 3.356 0 01-1.445-1.489c-.323-.647-.485-1.427-.485-2.34 0-.95.171-1.766.513-2.45.343-.685.819-1.208 1.43-1.568.611-.361 1.315-.542 2.113-.542.831 0 1.526.19 2.082.57.556.379.969.884 1.238 1.516.269.631.403 1.328.403 2.093v.525zM113.051 23.675c0-.472-.023-1.19-.066-2.157h1.882a25.238 25.238 0 01.155 1.663c.233-.376.463-.693.688-.95.225-.257.489-.467.791-.629.3-.162.644-.243 1.029-.243.31 0 .576.032.799.096l-.253 1.703a2.267 2.267 0 00-.652-.088c-.472 0-.885.119-1.238.355s-.73.625-1.131 1.166v5.515h-2.004v-6.43zM119.536 33.619a4.964 4.964 0 01-.725-.171l.366-1.433c.135.037.307.073.514.108.206.034.402.052.586.052.89 0 1.558-.56 2.004-1.68l.13-.318-3.242-8.659h2.158l1.63 4.839c.266.828.437 1.462.513 1.902.152-.62.331-1.242.537-1.863l1.654-4.878h2.028l-3.233 8.699c-.304.822-.633 1.485-.986 1.99-.353.503-.77.877-1.25 1.121-.481.244-1.061.366-1.74.366-.337 0-.651-.025-.944-.075z" fill="#fff"/><path fill-rule="evenodd" clip-rule="evenodd" d="M28.061 7.307H16.699c-5.352 0-7.31 1.913-7.31 7.142V25.55c0 5.23 1.958 7.142 7.31 7.142h11.358c5.353 0 7.314-1.913 7.314-7.142v-11.1c0-5.23-1.958-7.143-7.31-7.143z" fill="gray"/><path d="M20.724 22.03h1.042l-.522-1.188-.52 1.188zm-.256.598l-.31.691h-.703l1.497-3.317h.608l1.49 3.317h-.723l-.305-.691h-1.554zm11.323.689h.68v-3.315h-.68v3.315zm-2.707-1.424h1.254v-.604h-1.254v-.68h1.82v-.605h-2.5v3.315h2.566v-.604h-1.886v-.822zm-2.702.392l-.771-2.283h-.563l-.77 2.283-.751-2.281h-.734l1.184 3.317h.57l.773-2.179.772 2.179h.576l1.18-3.317h-.714l-.752 2.28zm-7.965-.383c0 .54-.275.828-.773.828-.5 0-.776-.297-.776-.851v-1.875h-.69v1.898c0 .933.532 1.469 1.457 1.469.935 0 1.47-.546 1.47-1.497v-1.872h-.688v1.9zm-3.883-1.9h.69v3.32h-.69v-1.349h-1.556v1.348h-.69v-3.319h.69v1.34h1.556v-1.34zM22.38 15.777c-2.385 0-4.325-1.896-4.325-4.226h.611c0 2 1.666 3.629 3.714 3.629s3.714-1.628 3.714-3.629h.61c0 2.33-1.94 4.226-4.324 4.226zM46.719 13.496c.28-.185.491-.439.63-.762.14-.324.21-.694.21-1.11 0-.408-.062-.772-.185-1.092a1.623 1.623 0 00-.591-.764c-.27-.19-.62-.284-1.045-.284-.408 0-.754.096-1.038.288-.284.193-.497.45-.639.774-.142.323-.213.68-.213 1.07 0 .412.067.78.201 1.104.134.325.34.581.615.77.276.188.618.283 1.025.283.405 0 .748-.092 1.03-.277zm-2.605.697a2.403 2.403 0 01-.977-1.003c-.226-.431-.338-.932-.338-1.503 0-.6.12-1.124.36-1.573a2.5 2.5 0 011.037-1.04c.451-.246.984-.368 1.598-.368.587 0 1.092.118 1.515.355.424.237.747.57.97 1 .222.43.333.927.333 1.493 0 .61-.121 1.14-.364 1.59-.242.45-.588.798-1.037 1.041-.449.243-.976.365-1.582.365-.584 0-1.09-.119-1.515-.357zM50.65 9.605h-1.805l.089-.82h4.53l-.092.82h-1.717v4.867H50.65V9.605zM58.875 14.472h-1.133l-1.733-2.506h-.687v2.506h-1.006V8.785h1.006v2.348h.526l1.206-1.704c.177-.254.355-.438.533-.552.178-.114.403-.171.673-.171.225 0 .427.037.603.11l-.209.766a.836.836 0 00-.313-.067.526.526 0 00-.304.087c-.084.057-.172.15-.263.278l-1.065 1.493 2.166 3.099zM62.164 11.324c.214-.19.321-.458.321-.803 0-.351-.109-.604-.327-.758-.219-.155-.54-.232-.963-.232h-.547v2.019c.252.039.445.059.579.059.41 0 .722-.095.937-.285zm-2.52-2.54h1.567c.737 0 1.301.147 1.693.44.39.294.586.718.586 1.273 0 .377-.087.706-.263.988a1.72 1.72 0 01-.733.648c-.314.15-.675.226-1.082.226-.222 0-.477-.026-.764-.079v2.192h-1.005V8.785zM68.03 13.496c.281-.185.491-.439.63-.762.14-.324.21-.694.21-1.11 0-.408-.062-.772-.185-1.092a1.624 1.624 0 00-.591-.764c-.27-.19-.62-.284-1.045-.284-.408 0-.754.096-1.038.288-.284.193-.497.45-.639.774-.142.323-.213.68-.213 1.07 0 .412.067.78.201 1.104.134.325.34.581.615.77.276.188.618.283 1.025.283.405 0 .748-.092 1.03-.277zm-2.606.697a2.402 2.402 0 01-.977-1.003c-.225-.431-.337-.932-.337-1.503 0-.6.12-1.124.36-1.573.24-.45.585-.796 1.037-1.04.451-.246.984-.368 1.598-.368.587 0 1.092.118 1.515.355.424.237.747.57.97 1 .222.43.333.927.333 1.493 0 .61-.121 1.14-.364 1.59-.242.45-.588.798-1.037 1.041-.449.243-.976.365-1.582.365-.584 0-1.09-.119-1.516-.357zM72.773 8.29a1.236 1.236 0 01-.484-.424 1.396 1.396 0 01-.211-.558h.723c.078.419.33.628.756.628s.68-.21.76-.628h.728a1.4 1.4 0 01-.212.558 1.235 1.235 0 01-.486.424c-.213.11-.476.165-.79.165-.31 0-.572-.055-.784-.165zm2.267 6.182v-3.127c0-.392.015-.843.045-1.35l-2.923 4.477h-1.118V8.785h.933v3.248c0 .353-.012.74-.036 1.158l2.878-4.406h1.154v5.687h-.933zM78.63 9.605h-1.804l.088-.82h4.53l-.092.82h-1.716v4.867H78.63V9.605zM82.297 8.785h3.43l-.098.809h-2.327v1.567h2.195v.758h-2.195v1.736h2.452l-.084.817h-3.373V8.785zM92.124 13.5c.205-.164.308-.395.308-.694 0-.316-.114-.557-.34-.722-.227-.165-.553-.248-.979-.248h-.675v1.91h.755c.416 0 .726-.083.931-.246zm-1.686-2.39h.627c.209 0 .393-.04.553-.122a.906.906 0 00.367-.328.841.841 0 00.13-.454c0-.233-.087-.407-.26-.522-.173-.115-.423-.173-.75-.173h-.667v1.599zm2.325.552c.208.124.372.287.49.49.12.203.18.441.18.713 0 .317-.082.597-.244.839-.162.242-.399.43-.711.566-.312.134-.687.202-1.124.202h-1.897V8.785h1.817c.616 0 1.079.116 1.387.349.308.233.462.553.462.958 0 .338-.098.62-.295.847a1.573 1.573 0 01-.774.477c.265.04.501.121.71.246z" fill="#fff"/></g></g><defs><clipPath id="clip0_1_2"><path fill="#fff" d="M0 0h137v40H0z"/></clipPath></defs></svg>