<svg xmlns="http://www.w3.org/2000/svg" width="346" height="51" viewBox="0 0 346 51" fill="blue"><path fill-rule="evenodd" d="m58.02 13.313-.372.252 4.546 5.983.357-.296c2.571-2.142 7.027-3.582 13.623-3.582 9.128 0 14.128 2.74 15.752 6.308H75.742v6.691H91.33c-2.08 3.029-6.96 5.245-15.157 5.245-6.58 0-11.036-1.44-13.608-3.583l-.357-.295-4.553 5.997.38.251c4.083 2.696 10.097 4.329 18.138 4.329 8.04 0 14.449-1.736 18.532-4.587 4.099-2.866 6.096-6.84 6.096-11.22 0-4.38-2.004-8.36-6.103-11.22C90.616 10.737 84.467 9 76.174 9c-8.295 0-14.07 1.632-18.153 4.328v-.014ZM0 39.276l.142-.532c2.54-9.617 5.909-16.722 10.283-21.427 4.39-4.727 9.777-7.01 16.283-7.01 6.505 0 11.886 2.29 16.282 7.01 4.374 4.705 7.75 11.818 10.284 21.442l.141.532H45.13l-.082-.31c-2.653-9.315-5.813-14.529-9.002-17.417-3.175-2.873-6.416-3.472-9.337-3.472-2.922 0-6.163.606-9.33 3.472-3.19 2.888-6.357 8.095-9.002 17.41l-.09.31H0v-.008Zm244.274.015.142-.532c2.541-9.624 5.909-16.73 10.283-21.442 4.397-4.727 9.785-7.01 16.282-7.01 6.499 0 11.894 2.29 16.283 7.017 4.374 4.713 7.742 11.818 10.284 21.435l.142.532h-8.288l-.089-.31c-2.645-9.315-5.813-14.529-9.002-17.417-3.167-2.873-6.408-3.472-9.33-3.472-2.921 0-6.162.606-9.329 3.472-3.198 2.888-6.357 8.102-9.01 17.416l-.081.31h-8.287Zm-141.34-22.292v-6.692h43.176V17h-17.46v22.277h-8.257V16.999h-17.459Zm128.061 4.971c-.045-1.204-.254-2.098-.589-2.762a3.339 3.339 0 0 0-1.483-1.544c-.626-.325-1.371-.502-2.206-.59-.842-.09-1.743-.09-2.667-.09h-24.391V10.3h24.823v.015c1.699 0 3.42.014 5.037.184 1.759.185 3.443.554 4.896 1.322 1.461.769 2.683 1.928 3.532 3.65.842 1.713 1.312 3.973 1.312 6.927v16.87h-28.146c-3.644 0-7.407 0-10.254-1.056-1.445-.539-2.683-1.351-3.555-2.6-.864-1.248-1.341-2.88-1.341-4.993 0-2.112.477-3.752 1.341-4.993.872-1.248 2.11-2.06 3.555-2.6 2.847-1.056 6.61-1.056 10.254-1.056h19.882Zm-19.823 10.629h19.83v-3.922h-19.83c-1.862 0-3.651 0-4.985.288-.663.14-1.155.347-1.483.613a1.294 1.294 0 0 0-.484 1.056c0 .473.179.798.484 1.056.328.274.82.473 1.483.613 1.334.289 3.123.289 4.985.289v.007ZM330.351 21.97v.015h-19.39V10.307h-8.257v28.969h28.146c3.644 0 7.408 0 10.254-1.056 1.446-.54 2.683-1.352 3.547-2.6.872-1.248 1.349-2.88 1.349-4.993 0-2.113-.477-3.753-1.349-4.993-.864-1.248-2.101-2.061-3.547-2.6-2.846-1.056-6.61-1.056-10.254-1.056h-.499v-.008Zm.433 10.629h-19.823v-3.922h19.823c1.87 0 3.658 0 4.985.288.663.14 1.162.347 1.49.613.305.258.477.583.477 1.056 0 .473-.172.798-.477 1.056-.328.274-.827.473-1.49.613-1.327.289-3.115.289-4.985.289v.007Zm-179.89-22.292 17.065 25.49-9.531 14.233h9.851l26.596-39.723h-9.844L172.616 28.84l-12.407-18.532h-9.315Z" clip-rule="evenodd"/></svg>
