<svg width="48" height="32" viewBox="0 0 48 32" fill="none" xmlns="http://www.w3.org/2000/svg">
<path d="M23.1 23.7575C23.2 23.8544 23.3 23.8545 23.3 23.9514C21.7 24.9211 19.8 25.5999 17.8 25.5999C12.4 25.5999 8 21.3332 8 15.9999C8 10.6666 12.4 6.3999 17.9 6.3999C19.9 6.3999 21.8 6.98172 23.4 7.95142C23.3 8.04839 23.2 8.04839 23.2 8.14536C20.9 10.0848 19.5 12.9938 19.5 15.9029C19.5 18.812 20.8 21.8181 23.1 23.7575ZM30.1 6.3999C28.1 6.3999 26.2 6.98172 24.6 7.95142C24.7 8.04839 24.8 8.04839 24.8 8.14536C27.1 10.0848 28.5 12.9938 28.5 15.9029C28.5 18.909 27.2 21.7211 24.8 23.6605C24.7 23.7575 24.6 23.7575 24.6 23.8545C26.2 24.8241 28 25.5029 30.1 25.5029C35.6 25.5029 40 21.2363 40 15.9029C40 10.6666 35.6 6.3999 30.1 6.3999ZM24 8.43627C23.9 8.53324 23.7 8.63021 23.6 8.72718C21.5 10.4726 20.2 13.0908 20.2 15.9999C20.2 18.909 21.5 21.4302 23.6 23.2726C23.7 23.3696 23.8 23.4666 24 23.5635C24.1 23.4666 24.3 23.3696 24.4 23.2726C26.5 21.5272 27.8 18.909 27.8 15.9999C27.8 13.0908 26.5 10.5696 24.4 8.72718C24.3 8.63021 24.1 8.53324 24 8.43627Z" fill="black"/>
</svg>
