<svg width="72" height="32" viewBox="0 0 72 32" fill="none" xmlns="http://www.w3.org/2000/svg">
<path fill-rule="evenodd" clip-rule="evenodd" d="M11.8703 8.00273C12.3992 7.9996 13.9711 7.85933 14.6369 10.0857C15.0853 11.5855 15.7998 14.0421 16.7801 17.4557H17.1794C18.2307 13.8569 18.9529 11.4002 19.346 10.0857C20.0187 7.83614 21.7006 8.00277 22.3733 8.00277L27.5636 8.00278V24H22.2735V14.5726H21.9188L18.9698 24H14.9897L12.0407 14.5656H11.686V24H6.39587V8.00278L11.8703 8.00273ZM35.1601 8.00278V17.4372H35.5821L39.1692 9.67935C39.8656 8.13551 41.3496 8.00278 41.3496 8.00278H46.4689V24H41.0683V14.5656H40.6463L37.1295 22.3234C36.4331 23.8603 34.8787 24 34.8787 24H29.7595V8.00278H35.1601ZM65.1357 15.6048C64.3824 17.7199 62.0166 19.2347 59.3974 19.2347H53.7339V24H48.5982V15.6048H65.1357Z" fill="black"/>
<path fill-rule="evenodd" clip-rule="evenodd" d="M59.647 8.00293H48.3308C48.6001 11.5645 51.6957 14.6134 54.9002 14.6134H65.4944C66.1058 11.6533 64.0011 8.00293 59.647 8.00293Z" fill="black"/>
</svg>
