<svg
    aria-hidden="true"
    class="le-icon icon icon-odnoklassniki-v2 footer-social-icon__icon"
    viewBox="0 0 32 32"
    role="img"
    xmlns="http://www.w3.org/2000/svg">
    <title>Иконка Одноклассники</title>
    <path
        fill-rule="evenodd"
        d="M12.019 3h7.976C27.28 3 29 4.733 29 12.019v7.976C29 27.28 27.267 29 19.981 29h-7.976C4.72 29 3 27.267 3 19.981v-7.976C3 4.733 4.733 3 12.019 3Zm-.147 9.175c0 2.221 1.878 4.098 4.138 4.098h.001a4.111 4.111 0 0 0 4.138-4.098C20.149 9.877 18.348 8 16.011 8c-2.261 0-4.139 1.877-4.139 4.175Zm2.453 0c0-.958.728-1.762 1.685-1.762h.001c.996 0 1.686.804 1.686 1.762 0 .957-.69 1.685-1.686 1.685a1.653 1.653 0 0 1-1.686-1.685Zm5.671 9.767-2.337-2.259c.882-.268 1.725-.613 2.453-1.073.536-.307.69-1.072.345-1.647-.345-.574-1.073-.727-1.686-.344a5.295 5.295 0 0 1-5.518 0c-.614-.383-1.303-.23-1.687.344-.306.575-.191 1.341.384 1.647.77.457 1.593.817 2.451 1.071l-2.376 2.26c-.46.498-.46 1.226 0 1.686.269.229.575.344.843.344.345 0 .652-.114.882-.344l2.261-2.298 2.337 2.298c.383.497 1.15.497 1.648 0 .46-.46.46-1.188 0-1.685Z"
        clip-rule="evenodd">
    </path>
</svg>
