<svg width="137" height="40" viewBox="0 0 137 40" fill="none" xmlns="http://www.w3.org/2000/svg"><g clip-path="url(#clip0_1_31)"><path d="M131.097 39.952H5.042C2.22 39.952 0 37.657 0 34.964V5.036C0 2.243 2.32.05 5.042.05h126.055c2.824 0 5.042 2.294 5.042 4.987v29.928c0 2.793-2.218 4.988-5.042 4.988z" fill="#000"/><path d="M68.675 21.796c-2.42 0-4.337 1.796-4.337 4.29 0 2.394 1.916 4.289 4.337 4.289 2.42 0 4.336-1.796 4.336-4.29 0-2.593-1.916-4.29-4.336-4.29zm0 6.783c-1.311 0-2.42-1.097-2.42-2.593 0-1.497 1.109-2.594 2.42-2.594 1.31 0 2.42.998 2.42 2.594 0 1.496-1.11 2.593-2.42 2.593zm-9.379-6.783c-2.42 0-4.336 1.796-4.336 4.29 0 2.394 1.916 4.289 4.336 4.289 2.42 0 4.337-1.796 4.337-4.29 0-2.593-1.916-4.29-4.337-4.29zm0 6.783c-1.31 0-2.42-1.097-2.42-2.593 0-1.497 1.11-2.594 2.42-2.594 1.311 0 2.42.998 2.42 2.594 0 1.496-1.109 2.593-2.42 2.593zm-11.193-5.486v1.795h4.336c-.1.998-.504 1.796-1.008 2.295-.606.598-1.614 1.297-3.328 1.297-2.723 0-4.74-2.095-4.74-4.789 0-2.693 2.118-4.788 4.74-4.788 1.411 0 2.52.599 3.328 1.297l1.31-1.297c-1.109-.998-2.52-1.796-4.538-1.796-3.63 0-6.756 2.993-6.756 6.584 0 3.591 3.126 6.584 6.756 6.584 2.017 0 3.43-.598 4.64-1.895 1.21-1.197 1.613-2.893 1.613-4.19 0-.399 0-.798-.101-1.097h-6.252zm45.783 1.396c-.404-.997-1.412-2.693-3.63-2.693-2.22 0-4.034 1.696-4.034 4.29 0 2.394 1.815 4.289 4.235 4.289 1.916 0 3.126-1.197 3.53-1.895l-1.412-.998c-.504.698-1.11 1.197-2.118 1.197-1.008 0-1.613-.399-2.118-1.297l5.749-2.394-.202-.499zm-5.85 1.397c0-1.596 1.312-2.494 2.22-2.494.705 0 1.411.399 1.613.898l-3.832 1.596zm-4.739 4.09h1.916v-12.47h-1.916v12.47zm-3.025-7.282c-.504-.5-1.311-.998-2.32-.998-2.117 0-4.134 1.895-4.134 4.29a4.153 4.153 0 004.135 4.19c1.008 0 1.815-.5 2.218-.998h.1v.598c0 1.597-.907 2.494-2.319 2.494-1.109 0-1.915-.798-2.117-1.496l-1.614.698c.504 1.098 1.715 2.494 3.832 2.494 2.219 0 4.034-1.297 4.034-4.389v-7.582h-1.815v.699zm-2.219 5.885c-1.31 0-2.42-1.097-2.42-2.593 0-1.497 1.11-2.594 2.42-2.594 1.311 0 2.32 1.097 2.32 2.594 0 1.496-1.009 2.593-2.32 2.593zm24.606-11.073h-4.538v12.47h1.916v-4.689h2.622c2.118 0 4.135-1.496 4.135-3.89s-2.017-3.89-4.135-3.89zm.101 5.986h-2.723v-4.29h2.723c1.412 0 2.219 1.197 2.219 2.095-.101 1.097-.908 2.195-2.219 2.195zm11.597-1.796c-1.412 0-2.824.599-3.328 1.895l1.715.699c.403-.698 1.008-.898 1.714-.898 1.008 0 1.916.599 2.017 1.596v.1c-.303-.2-1.109-.499-1.916-.499-1.815 0-3.631.998-3.631 2.793 0 1.696 1.513 2.793 3.127 2.793 1.311 0 1.916-.598 2.42-1.197h.101v.998h1.815v-4.788c-.202-2.195-1.916-3.492-4.034-3.492zm-.202 6.883c-.605 0-1.512-.299-1.512-1.097 0-.997 1.109-1.297 2.017-1.297.806 0 1.21.2 1.714.4-.202 1.196-1.21 1.994-2.219 1.994zm10.589-6.584l-2.118 5.387h-.101l-2.218-5.387h-2.017l3.328 7.582-1.916 4.19h1.916l5.143-11.772h-2.017zm-16.942 7.981h1.916v-12.47h-1.916v12.47z" fill="#fff"/><path d="M10.488 7.53c-.303.3-.404.798-.404 1.397v22.046c0 .599.202 1.098.505 1.397l.1.1L23.194 20.1v-.2L10.488 7.53z" fill="#C2C2C2"/><path d="M27.228 24.29l-4.135-4.09V19.9l4.135-4.09.1.1 4.942 2.793c1.412.798 1.412 2.095 0 2.893l-5.042 2.694z" fill="#F0F0F0"/><path d="M27.329 24.19L23.093 20 10.488 32.47c.504.498 1.21.498 2.117.1l14.724-8.38zM27.329 15.81L12.605 7.53c-.907-.498-1.613-.399-2.117.1L23.093 20l4.236-4.19z" fill="#DCDCDC"/><path opacity=".2" d="M27.228 24.09l-14.623 8.18c-.806.5-1.512.4-2.016 0l-.101.1.1.1c.505.399 1.21.499 2.018 0l14.622-8.38z" fill="#000"/><path opacity=".12" d="M10.488 32.27c-.303-.299-.404-.798-.404-1.396v.1c0 .598.202 1.097.505 1.396v-.1h-.101zM32.27 21.297l-5.042 2.793.1.1 4.942-2.793c.706-.4 1.008-.898 1.008-1.397 0 .499-.403.898-1.008 1.297z" fill="#000"/><path opacity=".25" d="M12.605 7.63L32.27 18.703c.605.4 1.008.798 1.008 1.297 0-.499-.302-.998-1.008-1.397L12.605 7.53c-1.411-.798-2.52-.2-2.52 1.397v.1c0-1.497 1.109-2.195 2.52-1.397z" fill="#fff"/><path d="M42.455 14.313h-.706v-1.995h.605c.505-.399.807-1.197.807-2.294V7.03h4.034v5.287h.706v1.995h-.706v-1.297h-4.639v1.297h-.1zm1.412-4.29c0 .898-.201 1.697-.605 2.295h3.025V7.73h-2.52v2.295h.1zM53.85 12.219c-.604.598-1.31.898-2.218.898-.907 0-1.613-.3-2.218-.898-.605-.599-.908-1.297-.908-2.195 0-.898.303-1.596.908-2.195.605-.598 1.31-.897 2.218-.897.908 0 1.614.299 2.219.897.605.599.907 1.297.907 2.195 0 .898-.302 1.596-.907 2.195zm-3.831-.5c.403.4 1.008.7 1.613.7s1.21-.2 1.614-.7c.403-.398.706-.997.706-1.695 0-.698-.202-1.297-.706-1.696-.404-.399-1.009-.698-1.614-.698-.605 0-1.21.2-1.613.698a2.394 2.394 0 00-.706 1.696c0 .698.201 1.297.706 1.696zM58.691 13.117c-.907 0-1.613-.3-2.218-.898-.605-.599-.908-1.297-.908-2.195 0-.898.303-1.596.908-2.195.605-.598 1.31-.897 2.218-.897.908 0 1.614.299 2.219.997l-.504.499a2.163 2.163 0 00-1.715-.798c-.706 0-1.21.2-1.714.698-.504.4-.706.998-.706 1.696s.202 1.297.706 1.696a2.446 2.446 0 001.714.698c.706 0 1.311-.3 1.815-.898l.505.5c-.303.298-.605.598-1.009.797-.403.2-.807.3-1.31.3zM64.238 13.017h-.807V7.73h-1.714v-.698h4.134v.698h-1.714v5.287h.1zM71.196 7.032l-2.32 5.087c-.302.699-.806 1.098-1.411 1.098-.202 0-.404 0-.605-.1l.201-.699c.101.1.303.1.404.1.201 0 .302 0 .403-.1.1-.1.202-.2.303-.399l.201-.498-2.017-4.39h.908l1.513 3.392 1.512-3.491h.908zM72.103 13.017V7.032h4.337v5.985h-.807V7.73h-2.824v5.287h-.706zM77.852 13.017V7.032h.806v2.593h3.026V7.032h.806v5.985h-.806v-2.694h-3.026v2.694h-.806zM88.844 12.219c-.605.598-1.311.898-2.219.898-.908 0-1.614-.3-2.219-.898-.605-.599-.907-1.297-.907-2.195 0-.898.302-1.596.907-2.195.605-.598 1.311-.897 2.219-.897.908 0 1.614.299 2.219.897.605.599.907 1.297.907 2.195-.1.898-.403 1.596-.907 2.195zm-3.933-.5c.403.4 1.008.7 1.613.7s1.21-.2 1.614-.7c.403-.398.706-.997.706-1.695 0-.698-.202-1.297-.706-1.696-.404-.399-1.009-.698-1.614-.698-.605 0-1.21.2-1.613.698a2.394 2.394 0 000 3.392zM92.877 13.017V7.032h2.219c.504 0 .907.2 1.21.498.303.3.504.699.504 1.098 0 .299-.1.498-.201.798-.101.2-.303.399-.605.499.302.1.504.299.705.498.202.2.303.5.303.898 0 .499-.202.898-.504 1.197-.404.3-.807.499-1.311.499h-2.32zm.807-3.392h1.412c.302 0 .504-.1.706-.299.201-.2.302-.4.302-.599 0-.2-.201-.498-.302-.698-.202-.2-.404-.3-.706-.3h-1.412v1.896zm0 2.694h1.614c.302 0 .504-.1.706-.3.201-.2.302-.399.302-.698 0-.2-.1-.499-.302-.698-.202-.2-.404-.3-.707-.3h-1.512v1.996h-.1z" fill="#fff" stroke="#fff" stroke-width=".266" stroke-miterlimit="10"/></g><defs><clipPath id="clip0_1_31"><path fill="#fff" d="M0 0h137v40H0z"/></clipPath></defs></svg>