<svg
    aria-hidden="true"
    class="le-icon icon icon-telegram-v2 footer-social-icon__icon"
    viewBox="0 0 24 24"
    role="img"
    xmlns="http://www.w3.org/2000/svg">
    <title>Иконка Telegram</title>
    <path
        fill-rule="evenodd"
        d="M8.938 2h6.135C20.677 2 22 3.333 22 8.938v6.135C22 20.677 20.667 22 15.062 22H8.928C3.323 22 2 20.667 2 15.062V8.928C2 3.333 3.333 2 8.938 2Zm6.985 14.808a.706.706 0 0 1-1.002.352l-2.715-2.11-1.742 1.608a.3.3 0 0 1-.285.039l.334-2.989.01.009.008-.06s4.884-4.447 5.083-4.636c.202-.19.135-.23.135-.23.012-.23-.361 0-.361 0l-6.473 4.164-2.695-.918s-.414-.149-.453-.475c-.041-.324.466-.5.466-.5l10.718-4.258s.88-.392.88.258l-1.908 9.746Z"
        clip-rule="evenodd">
    </path>
</svg>
