<svg width="65" height="32" viewBox="0 0 65 32" fill="none" xmlns="http://www.w3.org/2000/svg">
<path fill-rule="evenodd" clip-rule="evenodd" d="M40.0258 11.238C41.4086 11.2163 42.4109 11.5184 43.1893 11.8313L43.5709 12.0106L44.1427 8.65086C43.3056 8.33684 41.9935 8 40.3563 8C36.1796 8 33.2357 10.1025 33.2129 13.1157C33.1857 15.3421 35.3099 16.5851 36.9145 17.3273C38.5615 18.0879 39.1137 18.5714 39.1061 19.2505C39.0931 20.2882 37.7929 20.7641 36.5786 20.7641C34.8859 20.7641 33.9869 20.5305 32.5986 19.9525L32.054 19.7047L31.4593 23.1742C32.4486 23.6077 34.2739 23.9804 36.1687 24C40.6118 24 43.4991 21.9224 43.5296 18.7029C43.5481 16.9415 42.4207 15.5974 39.978 14.4945C38.4995 13.7752 37.595 13.2971 37.6037 12.5713C37.6037 11.9269 38.3712 11.238 40.0258 11.238ZM13.0157 8.13364C13.8995 8.16733 14.6116 8.44875 14.8573 9.393L16.2825 16.2407C14.8823 12.6582 11.5079 9.67877 6.4082 8.44223L6.46256 8.13364H13.0157ZM27.2328 8.2661L24.59 23.7674H28.8167L31.4617 8.2661H27.2328ZM21.0396 8.28368L16.8998 18.8551L16.4585 17.2589C15.6421 15.3356 13.3243 12.5735 10.6033 10.8328L14.3886 23.7599L18.861 23.7523L25.5174 8.28042L21.0396 8.28368ZM51.7186 8.28385H54.9843L58.4044 23.7764H54.4832C54.4832 23.7764 54.094 21.9955 53.9679 21.4544C53.6428 21.4544 52.2818 21.4526 51.0004 21.4508C49.8607 21.4493 48.7839 21.4479 48.5551 21.4479C48.391 21.8662 47.667 23.7764 47.667 23.7764H43.2283L49.5042 9.57037C49.9499 8.55985 50.7044 8.28385 51.7186 8.28385ZM51.4556 13.9428C51.4556 13.9428 50.1195 17.3851 49.7716 18.275H53.283L52.3035 13.7994L52.0187 12.4629C51.9118 12.7483 51.7693 13.1187 51.6542 13.4178C51.5341 13.73 51.4439 13.9644 51.4556 13.9428Z" fill="black"/>
</svg>
