<?xml version="1.0" encoding="UTF-8"?>
<svg xmlns="http://www.w3.org/2000/svg" viewBox="0 0 32 32">
  <symbol id="le-icon-vk-v2">
    <path fill-rule="evenodd" d="M12.019 3h7.976C27.28 3 29 4.733 29 12.019v7.976C29 27.28 27.267 29 19.981 29h-7.976C4.72 29 3 27.267 3 19.981v-7.976C3 4.733 4.733 3 12.019 3ZM22.11 21.558h1.944c.556 0 .834-.278.667-.82a8.648 8.648 0 0 0-1.639-2.278 12 12 0 0 0-.749-.779c-.258-.253-.485-.474-.584-.623-.292-.375-.208-.542 0-.861a24.272 24.272 0 0 0 2.611-4.487c.125-.416 0-.708-.583-.708h-1.945a.837.837 0 0 0-.847.556 16 16 0 0 1-2.389 3.972c-.458.458-.653.597-.903.597-.125 0-.305-.139-.305-.555V11.71c0-.5-.139-.708-.556-.708h-3.055a.48.48 0 0 0-.5.444c0 .182.103.31.234.475.21.26.492.612.543 1.414v2.861c0 .625-.11.737-.36.737-.653 0-2.264-2.417-3.209-5.195-.194-.514-.375-.736-.875-.736H7.667c-.556 0-.667.264-.667.556a15.502 15.502 0 0 0 3.07 6.444A7.59 7.59 0 0 0 16 21.558c1.236 0 1.389-.278 1.389-.75v-1.75c0-.556.111-.667.514-.667.291 0 .777.139 1.93 1.25.395.395.692.725.933.994.566.63.83.923 1.345.923Z" clip-rule="evenodd"></path>
  </symbol>
  <use href="#le-icon-vk-v2" aria-hidden="true" class="le-icon icon icon-vk-v2 footer-social-icon__icon"></use>
</svg>
